<svg xmlns="http://www.w3.org/2000/svg" version="1.1" xmlns:xlink="http://www.w3.org/1999/xlink" viewBox="0 0 200 200"><rect width="200" height="200" fill="url('#gradient')"></rect><defs><linearGradient id="gradient" gradientTransform="rotate(360 0.5 0.5)"><stop offset="0%" stop-color="#f2b608"></stop><stop offset="100%" stop-color="#f2b608"></stop></linearGradient></defs><g><g fill="#ffffff" transform="matrix(6.113432835820896,0,0,6.113432835820896,8.729688540590345,143.4658831454035)" stroke="#ffffff" stroke-width="0"><path d="M10.11-14.22L12.09-5.30L13.72-14.22L17.12-14.22L14.10 0L10.55 0L8.64-8.11L6.78 0L3.23 0L0.21-14.22L3.61-14.22L5.24-5.30L7.20-14.22L10.11-14.22ZM24.07-4.82L21.88-4.82L21.88 0L18.46 0L18.46-14.22L24.13-14.22Q25.76-14.22 27.02-13.62Q28.27-13.02 28.96-11.91Q29.65-10.80 29.65-9.39L29.65-9.39Q29.65-7.31 28.16-6.07Q26.67-4.82 24.07-4.82L24.07-4.82ZM21.88-11.57L21.88-7.47L24.13-7.47Q25.13-7.47 25.65-7.97Q26.17-8.47 26.17-9.38L26.17-9.38Q26.17-10.37 25.63-10.97Q25.10-11.56 24.17-11.57L24.17-11.57L21.88-11.57Z"></path></g></g></svg>